<svg xmlns="http://www.w3.org/2000/svg" xmlns:xlink="http://www.w3.org/1999/xlink" aria-hidden="true" role="img" class="iconify iconify--logos" width="35.93" height="32" preserveAspectRatio="xMidYMid meet" viewBox="0 0 256 228"><path d="M8.700000000000045,117.2473200242951L19.36451612903238,98.34241031271281L40.69354838709705,98.34241031271281L51.35806451612939,117.2473200242951L40.69354838709705,136.03378780336305L19.36451612903238,136.03378780336305Z" id="estadohexa3" data-abbr="BCS" fill="rgb(255, 220, 178)" style="opacity: 1; stroke: rgb(0, 0, 0);"></path><path d="M8.700000000000045,79.29890126728512L19.36451612903238,60.09591539329699L40.69354838709705,60.09591539329699L51.35806451612939,79.29890126728512L40.69354838709705,98.34241031271281L19.36451612903238,98.34241031271281Z" id="estadohexa2" data-abbr="BC" fill="rgb(255, 235, 217)" style="opacity: 1; stroke: rgb(0, 0, 0);"></path><path d="M40.69354838709705,98.34241031271281L51.35806451612939,79.29890126728512L72.6870967741936,79.29890126728512L83.35161290322617,98.34241031271281L72.6870967741936,117.2473200242951L51.35806451612939,117.2473200242951Z" id="estadohexa25" data-abbr="SIN" fill="rgb(255, 219, 175)" style="opacity: 1; stroke: rgb(0, 0, 0);"></path><path d="M40.69354838709705,60.09591539329699L51.35806451612939,40.711731083157474L72.6870967741936,40.711731083157474L83.35161290322617,60.09591539329699L72.6870967741936,79.29890126728512L51.35806451612939,79.29890126728512Z" id="estadohexa26" data-abbr="SON" fill="rgb(255, 219, 176)" style="opacity: 1; stroke: rgb(0, 0, 0);"></path><path d="M72.6870967741936,117.2473200242951L83.35161290322617,98.34241031271281L104.68064516129039,98.34241031271281L115.34516129032272,117.2473200242951L104.68064516129039,136.03378780336305L83.35161290322617,136.03378780336305Z" id="estadohexa18" data-abbr="NAY" fill="rgb(255, 234, 213)" style="opacity: 1; stroke: rgb(0, 0, 0);"></path><path d="M72.6870967741936,79.29890126728512L83.35161290322617,60.09591539329699L104.68064516129039,60.09591539329699L115.34516129032272,79.29890126728512L104.68064516129039,98.34241031271281L83.35161290322617,98.34241031271281Z" id="estadohexa10" data-abbr="DGO" fill="rgb(255, 213, 159)" style="opacity: 1; stroke: rgb(0, 0, 0);"></path><path d="M104.68064516129039,247.33082856499308L115.34516129032272,228.8584446382885L136.67419354838728,228.8584446382885L147.33870967741973,247.33082856499308L136.67419354838728,265.8145398407126L115.34516129032272,265.8145398407126Z" id="estadohexa12" data-abbr="GRO" fill="rgb(255, 224, 189)" style="opacity: 1; stroke: rgb(0, 0, 0);"></path><path d="M104.68064516129039,210.37939808145936L115.34516129032272,191.87566643535186L136.67419354838728,191.87566643535186L147.33870967741973,210.37939808145936L136.67419354838728,228.8584446382885L115.34516129032272,228.8584446382885Z" id="estadohexa16" data-abbr="MICH" fill="rgb(255, 231, 206)" style="opacity: 1; stroke: rgb(0, 0, 0);"></path><path d="M104.68064516129039,173.32910665657806L115.34516129032272,154.72136557172462L136.67419354838728,154.72136557172462L147.33870967741973,173.32910665657806L136.67419354838728,191.87566643535186L115.34516129032272,191.87566643535186Z" id="estadohexa6" data-abbr="COL" fill="rgb(255, 234, 215)" style="opacity: 1; stroke: rgb(0, 0, 0);"></path><path d="M104.68064516129039,136.03378780336305L115.34516129032272,117.2473200242951L136.67419354838728,117.2473200242951L147.33870967741973,136.03378780336305L136.67419354838728,154.72136557172462L115.34516129032272,154.72136557172462Z" id="estadohexa14" data-abbr="JAL" fill="rgb(255, 230, 205)" style="opacity: 1; stroke: rgb(0, 0, 0);"></path><path d="M104.68064516129039,98.34241031271281L115.34516129032272,79.29890126728512L136.67419354838728,79.29890126728512L147.33870967741973,98.34241031271281L136.67419354838728,117.2473200242951L115.34516129032272,117.2473200242951Z" id="estadohexa32" data-abbr="ZAC" fill="rgb(255, 215, 166)" style="opacity: 1; stroke: rgb(0, 0, 0);"></path><path d="M104.68064516129039,60.09591539329699L115.34516129032272,40.711731083157474L136.67419354838728,40.711731083157474L147.33870967741973,60.09591539329699L136.67419354838728,79.29890126728512L115.34516129032272,79.29890126728512Z" id="estadohexa8" data-abbr="CHIH" fill="rgb(255, 202, 131)" style="opacity: 1; stroke: rgb(0, 0, 0);"></path><path d="M136.67419354838728,228.8584446382885L147.33870967741973,210.37939808145936L168.66774193548395,210.37939808145936L179.3322580645164,228.8584446382885L168.66774193548395,247.33082856499308L147.33870967741973,247.33082856499308Z" id="estadohexa17" data-abbr="MOR" fill="rgb(255, 238, 224)" style="opacity: 1; stroke: rgb(0, 0, 0);"></path><path d="M136.67419354838728,191.87566643535186L147.33870967741973,173.32910665657806L168.66774193548395,173.32910665657806L179.3322580645164,191.87566643535186L168.66774193548395,210.37939808145936L147.33870967741973,210.37939808145936Z" id="estadohexa15" data-abbr="MEX" fill="rgb(255, 234, 213)" style="opacity: 1; stroke: rgb(0, 0, 0);"></path><path d="M136.67419354838728,154.72136557172462L147.33870967741973,136.03378780336305L168.66774193548395,136.03378780336305L179.3322580645164,154.72136557172462L168.66774193548395,173.32910665657806L147.33870967741973,173.32910665657806Z" id="estadohexa11" data-abbr="GTO" fill="rgb(255, 237, 223)" style="opacity: 1; stroke: rgb(0, 0, 0);"></path><path d="M136.67419354838728,117.2473200242951L147.33870967741973,98.34241031271281L168.66774193548395,98.34241031271281L179.3322580645164,117.2473200242951L168.66774193548395,136.03378780336305L147.33870967741973,136.03378780336305Z" id="estadohexa1" data-abbr="AGS" fill="rgb(255, 238, 224)" style="opacity: 1; stroke: rgb(0, 0, 0);"></path><path d="M136.67419354838728,79.29890126728512L147.33870967741973,60.09591539329699L168.66774193548395,60.09591539329699L179.3322580645164,79.29890126728512L168.66774193548395,98.34241031271281L147.33870967741973,98.34241031271281Z" id="estadohexa5" data-abbr="COAH" fill="rgb(255, 226, 193)" style="opacity: 1; stroke: rgb(0, 0, 0);"></path><path d="M168.66774193548395,284.3276236816521L179.3322580645164,265.8145398407126L200.66129032258084,265.8145398407126L211.32580645161318,284.3276236816521L200.66129032258084,302.88826891684255L179.3322580645164,302.88826891684255Z" id="estadohexa20" data-abbr="OAX" fill="rgb(255, 190, 98)" style="opacity: 1; stroke: rgb(0, 0, 0);"></path><path d="M168.66774193548395,247.33082856499308L179.3322580645164,228.8584446382885L200.66129032258084,228.8584446382885L211.32580645161318,247.33082856499308L200.66129032258084,265.8145398407126L179.3322580645164,265.8145398407126Z" id="estadohexa21" data-abbr="PUE" fill="rgb(255, 230, 203)" style="opacity: 1; stroke: rgb(0, 0, 0);"></path><path d="M168.66774193548395,210.37939808145936L179.3322580645164,191.87566643535186L200.66129032258084,191.87566643535186L211.32580645161318,210.37939808145936L200.66129032258084,228.8584446382885L179.3322580645164,228.8584446382885Z" id="estadohexa9" data-abbr="CDMX" fill="rgb(255, 239, 227)" style="opacity: 1; stroke: rgb(0, 0, 0);"></path><path d="M168.66774193548395,173.32910665657806L179.3322580645164,154.72136557172462L200.66129032258084,154.72136557172462L211.32580645161318,173.32910665657806L200.66129032258084,191.87566643535186L179.3322580645164,191.87566643535186Z" id="estadohexa22" data-abbr="QRO" fill="rgb(255, 239, 227)" style="opacity: 1; stroke: rgb(0, 0, 0);"></path><path d="M168.66774193548395,136.03378780336305L179.3322580645164,117.2473200242951L200.66129032258084,117.2473200242951L211.32580645161318,136.03378780336305L200.66129032258084,154.72136557172462L179.3322580645164,154.72136557172462Z" id="estadohexa24" data-abbr="SLP" fill="rgb(255, 230, 203)" style="opacity: 1; stroke: rgb(0, 0, 0);"></path><path d="M168.66774193548395,98.34241031271281L179.3322580645164,79.29890126728512L200.66129032258084,79.29890126728512L211.32580645161318,98.34241031271281L200.66129032258084,117.2473200242951L179.3322580645164,117.2473200242951Z" id="estadohexa19" data-abbr="NL" fill="rgb(255, 234, 213)" style="opacity: 1; stroke: rgb(0, 0, 0);"></path><path d="M200.66129032258084,265.8145398407126L211.32580645161318,247.33082856499308L232.65483870967762,247.33082856499308L243.31935483870996,265.8145398407126L232.65483870967762,284.3276236816521L211.32580645161318,284.3276236816521Z" id="estadohexa7" data-abbr="CHPS" fill="rgb(255, 202, 132)" style="opacity: 1; stroke: rgb(0, 0, 0);"></path><path d="M200.66129032258084,228.8584446382885L211.32580645161318,210.37939808145936L232.65483870967762,210.37939808145936L243.31935483870996,228.8584446382885L232.65483870967762,247.33082856499308L211.32580645161318,247.33082856499308Z" id="estadohexa29" data-abbr="TLAX" fill="rgb(255, 231, 207)" style="opacity: 1; stroke: rgb(0, 0, 0);"></path><path d="M200.66129032258084,191.87566643535186L211.32580645161318,173.32910665657806L232.65483870967762,173.32910665657806L243.31935483870996,191.87566643535186L232.65483870967762,210.37939808145936L211.32580645161318,210.37939808145936Z" id="estadohexa13" data-abbr="HGO" fill="rgb(255, 234, 213)" style="opacity: 1; stroke: rgb(0, 0, 0);"></path><path d="M200.66129032258084,154.72136557172462L211.32580645161318,136.03378780336305L232.65483870967762,136.03378780336305L243.31935483870996,154.72136557172462L232.65483870967762,173.32910665657806L211.32580645161318,173.32910665657806Z" id="estadohexa30" data-abbr="VER" fill="rgb(255, 152, 0)" style="opacity: 1; stroke: rgb(0, 0, 0);"></path><path d="M200.66129032258084,117.2473200242951L211.32580645161318,98.34241031271281L232.65483870967762,98.34241031271281L243.31935483870996,117.2473200242951L232.65483870967762,136.03378780336305L211.32580645161318,136.03378780336305Z" id="estadohexa28" data-abbr="TAM" fill="rgb(255, 225, 191)" style="opacity: 1; stroke: rgb(0, 0, 0);"></path><path d="M232.65483870967762,247.33082856499308L243.31935483870996,228.8584446382885L264.6483870967743,228.8584446382885L275.3129032258066,247.33082856499308L264.6483870967743,265.8145398407126L243.31935483870996,265.8145398407126Z" id="estadohexa27" data-abbr="TAB" fill="rgb(255, 225, 190)" style="opacity: 1; stroke: rgb(0, 0, 0);"></path><path d="M264.6483870967743,228.8584446382885L275.3129032258066,210.37939808145936L296.64193548387095,210.37939808145936L307.3064516129033,228.8584446382885L296.64193548387095,247.33082856499308L275.3129032258066,247.33082856499308Z" id="estadohexa4" data-abbr="CAMP" fill="rgb(255, 235, 217)" style="opacity: 1; stroke: rgb(0, 0, 0);"></path><path d="M296.64193548387095,247.33082856499308L307.3064516129033,228.8584446382885L328.63548387096773,228.8584446382885L339.30000000000007,247.33082856499308L328.63548387096773,265.8145398407126L307.3064516129033,265.8145398407126Z" id="estadohexa23" data-abbr="QROO" fill="rgb(255, 230, 203)" style="opacity: 1; stroke: rgb(0, 0, 0); stroke-width: 3; fill: rgb(179, 161, 142);"></path><path d="M296.64193548387095,210.37939808145936L307.3064516129033,191.87566643535186L328.63548387096773,191.87566643535186L339.30000000000007,210.37939808145936L328.63548387096773,228.8584446382885L307.3064516129033,228.8584446382885Z" id="estadohexa31" data-abbr="YUC" fill="rgb(255, 234, 215)" style="opacity: 1; stroke: rgb(0, 0, 0);"></path><text x="30.029032258064717" y="122.19467916539985" id="estadohexa3" style="text-anchor: middle; opacity: 1;">BCS</text><text x="30.029032258064717" y="84.22802267681382" id="estadohexa2" style="text-anchor: middle; opacity: 1;">BC</text><text x="62.02258064516156" y="103.28081060878152" id="estadohexa25" style="text-anchor: middle; opacity: 1;">SIN</text><text x="62.02258064516155" y="65.01538275500747" id="estadohexa26" style="text-anchor: middle; opacity: 1;">SON</text><text x="94.0161290322582" y="122.19467916539982" id="estadohexa18" style="text-anchor: middle; opacity: 1;">NAY</text><text x="94.01612903225823" y="84.22802267681382" id="estadohexa10" style="text-anchor: middle; opacity: 1;">DGO</text><text x="126.00967741935496" y="252.33586294233282" id="estadohexa12" style="text-anchor: middle; opacity: 1;">GRO</text><text x="126.00967741935507" y="215.36842693066905" id="estadohexa16" style="text-anchor: middle; opacity: 1;">MICH</text><text x="126.00967741935497" y="178.30191496498705" id="estadohexa6" style="text-anchor: middle; opacity: 1;">COL</text><text x="126.00967741935503" y="140.9898366874936" id="estadohexa14" style="text-anchor: middle; opacity: 1;">JAL</text><text x="126.00967741935506" y="103.28081060878152" id="estadohexa32" style="text-anchor: middle; opacity: 1;">ZAC</text><text x="126.00967741935507" y="65.0153827550075" id="estadohexa8" style="text-anchor: middle; opacity: 1;">CHIH</text><text x="158.00322580645195" y="233.85548346934445" id="estadohexa17" style="text-anchor: middle; opacity: 1;">MOR</text><text x="158.00322580645192" y="196.85663170972256" id="estadohexa15" style="text-anchor: middle; opacity: 1;">MEX</text><text x="158.00322580645184" y="159.6858826012766" id="estadohexa11" style="text-anchor: middle; opacity: 1;">GTO</text><text x="158.0032258064517" y="122.19467916539975" id="estadohexa1" style="text-anchor: middle; opacity: 1;">AGS</text><text x="158.00322580645195" y="84.22802267681385" id="estadohexa5" style="text-anchor: middle; opacity: 1;">COAH</text><text x="189.99677419354865" y="289.34876207909696" id="estadohexa20" style="text-anchor: middle; opacity: 1;">OAX</text><text x="189.99677419354867" y="252.33586294233322" id="estadohexa21" style="text-anchor: middle; opacity: 1;">PUE</text><text x="189.99677419354853" y="215.36842693066902" id="estadohexa9" style="text-anchor: middle; opacity: 1;">CDMX</text><text x="189.99677419354848" y="178.30191496498708" id="estadohexa22" style="text-anchor: middle; opacity: 1;">QRO</text><text x="189.99677419354865" y="140.98983668749364" id="estadohexa24" style="text-anchor: middle; opacity: 1;">SLP</text><text x="189.99677419354848" y="103.28081060878142" id="estadohexa19" style="text-anchor: middle; opacity: 1;">NL</text><text x="221.99032258064497" y="270.8275943141431" id="estadohexa7" style="text-anchor: middle; opacity: 1;">CHPS</text><text x="221.99032258064528" y="233.85548346934405" id="estadohexa29" style="text-anchor: middle; opacity: 1;">TLAX</text><text x="221.99032258064588" y="196.8566317097228" id="estadohexa13" style="text-anchor: middle; opacity: 1;">HGO</text><text x="221.9903225806452" y="159.6858826012765" id="estadohexa30" style="text-anchor: middle; opacity: 1;">VER</text><text x="221.99032258064557" y="122.19467916539995" id="estadohexa28" style="text-anchor: middle; opacity: 1;">TAM</text><text x="253.98387096774204" y="252.33586294233297" id="estadohexa27" style="text-anchor: middle; opacity: 1;">TAB</text><text x="285.97741935483873" y="233.85548346934434" id="estadohexa4" style="text-anchor: middle; opacity: 1;">CAMP</text><text x="317.9709677419363" y="252.33586294233342" id="estadohexa23" style="text-anchor: middle; opacity: 1;">QROO</text><text x="317.9709677419351" y="215.36842693066868" id="estadohexa31" style="text-anchor: middle; opacity: 1;">YUC</text>
</svg>
